<svg 
  viewBox="0 0 200 200" 
  xmlns="http://www.w3.org/2000/svg"
>
  <!-- Gray circular background with cutaway -->
  <defs>
    <mask id="cutaway-mask">
      <circle cx="100" cy="100" r="100" fill="white"/>
      <circle cx="60" cy="160" r="40" fill="black"/>
    </mask>
  </defs>
  <circle cx="100" cy="100" r="100" fill="white" mask="url(#cutaway-mask)"/>
  
  <!-- Paintbrush (scaled and positioned) -->
  <g transform="translate(60, 50) scale(6)">
    <path 
      id="brush-bristles"
      fill="#616161ff" 
      d="M5.6 11.6l-1.2-1.2c-0.8-0.2-2-0.1-2.7 1-0.8 1.1-0.3 2.8-1.7 4.6 0 0 3.5 0 4.8-1.3 1.2-1.2 1.2-2.2 1-3l-0.2-0.1z">
    </path>
    <path 
      id="brush-connector"
      fill="#353434ff" 
      d="M5.8 8.1c-0.2 0.3-0.5 0.7-0.7 1 0 0.2-0.1 0.3-0.2 0.4l1.5 1.5c0.1-0.1 0.3-0.2 0.4-0.3 0.3-0.2 0.7-0.4 1-0.7 0.4 0 0.6-0.2 0.8-0.4l-2.2-2.2c-0.2 0.2-0.4 0.4-0.6 0.7z">
    </path>
    <path 
      id="handle"
      fill="#353434ff" 
      d="M15.8 0.2c-0.3-0.3-0.7-0.3-1-0.1 0 0-3 2.5-5.9 5.1-0.4 0.4-0.7 0.7-1.1 1-0.2 0.2-0.4 0.4-0.6 0.5l2.1 2.1c0.2-0.2 0.4-0.4 0.5-0.7 0.3-0.4 0.6-0.7 0.9-1.1 2.5-3 5.1-5.9 5.1-5.9 0.3-0.2 0.3-0.6 0-0.9z">
    </path>
  </g>
  
  <!-- Red droplet -->
  <g transform="translate(55, 135) scale(1) rotate(90)">
    <path 
      fill="#dc2626" 
      d="M10.203.561c-.027-.215-.38-.215-.406 0-.883 7.107-5.398 8.572-5.398 13.512 0 3.053 2.564 5.527 5.601 5.527 3.036 0 5.6-2.475 5.6-5.527 0-4.94-4.514-6.405-5.397-13.512zM9.35 8.418c-.059.219-.123.444-.189.678-.401 1.424-.856 3.039-.856 4.906 0 1.012-.598 1.371-1.156 1.371a1.161 1.161 0 0 1-1.156-1.166c0-2.207 1.062-3.649 2-4.92.295-.398.572-.775.797-1.15.103-.172.38-.164.506.006.059.08.079.182.054.275z">
    </path>
  </g>
  
  <!-- Yellow droplet -->
  <g transform="translate(45, 145) scale(1.4) rotate(25)">
    <path 
      fill="#fbbf24" 
      d="M10.203.561c-.027-.215-.38-.215-.406 0-.883 7.107-5.398 8.572-5.398 13.512 0 3.053 2.564 5.527 5.601 5.527 3.036 0 5.6-2.475 5.6-5.527 0-4.94-4.514-6.405-5.397-13.512zM9.35 8.418c-.059.219-.123.444-.189.678-.401 1.424-.856 3.039-.856 4.906 0 1.012-.598 1.371-1.156 1.371a1.161 1.161 0 0 1-1.156-1.166c0-2.207 1.062-3.649 2-4.92.295-.398.572-.775.797-1.15.103-.172.38-.164.506.006.059.08.079.182.054.275z">
    </path>
  </g>
  
  <!-- Blue droplet -->
  <g transform="translate(52, 157) scale(1.2) rotate(-30)">
    <path 
      fill="#5046e5" 
      d="M10.203.561c-.027-.215-.38-.215-.406 0-.883 7.107-5.398 8.572-5.398 13.512 0 3.053 2.564 5.527 5.601 5.527 3.036 0 5.6-2.475 5.6-5.527 0-4.94-4.514-6.405-5.397-13.512zM9.35 8.418c-.059.219-.123.444-.189.678-.401 1.424-.856 3.039-.856 4.906 0 1.012-.598 1.371-1.156 1.371a1.161 1.161 0 0 1-1.156-1.166c0-2.207 1.062-3.649 2-4.92.295-.398.572-.775.797-1.15.103-.172.38-.164.506.006.059.08.079.182.054.275z">
    </path>
  </g>
</svg>
